<?xml version="1.0" standalone="no"?>
<!DOCTYPE svg PUBLIC "-//W3C//DTD SVG 20010904//EN"
 "http://www.w3.org/TR/2001/REC-SVG-20010904/DTD/svg10.dtd">
<svg version="1.0" xmlns="http://www.w3.org/2000/svg"
 width="1080.000000pt" height="1080.000000pt" viewBox="0 0 1080.000000 1080.000000"
 preserveAspectRatio="xMidYMid meet">

<g transform="translate(0.000000,1080.000000) scale(0.100000,-0.100000)"
fill="#000000" stroke="none">
<path d="M0 5400 l0 -5400 1508 0 1507 0 37 168 c20 92 51 232 68 312 46 213
75 323 116 435 20 55 67 186 104 290 69 194 144 369 208 484 42 77 199 328
296 473 80 119 104 158 136 213 59 101 301 456 386 567 44 56 37 35 125 403
82 343 142 430 347 503 51 19 122 58 210 117 73 50 153 101 177 115 29 16 51
38 61 60 109 235 193 376 272 459 66 70 68 69 41 -19 -6 -21 -7 -21 -8 -5 -2
21 -130 -230 -131 -253 0 -7 -5 -10 -12 -6 -6 4 -8 3 -5 -3 8 -13 -16 -62 -35
-74 -10 -7 -10 -9 1 -9 14 0 -35 -40 -76 -61 -13 -7 -23 -16 -23 -20 0 -5 34
6 74 24 71 30 83 40 238 207 90 96 212 223 271 282 88 87 106 111 99 125 -13
25 -5 102 13 129 8 13 15 28 15 34 0 16 -32 12 -45 -7 -11 -14 -13 -13 -19 11
-4 18 -2 32 9 42 25 25 39 58 28 61 -7 3 -3 20 9 44 10 22 16 44 13 49 -3 4 7
18 21 29 15 12 25 24 22 26 -3 3 -30 -15 -61 -40 -61 -50 -84 -59 -46 -19 13
14 23 29 23 32 -1 5 62 65 114 107 1 1 -6 2 -15 2 -10 0 -20 -3 -23 -6 -11
-13 -48 -30 -54 -24 -3 3 2 12 12 19 15 11 12 12 -18 8 l-35 -5 63 61 c35 34
61 64 59 66 -5 5 -68 -44 -80 -63 -19 -29 -133 -104 -218 -141 -113 -49 -188
-71 -294 -83 -44 -5 -96 -12 -115 -14 -82 -11 -256 33 -342 85 -57 35 -138
115 -138 136 0 8 -4 14 -10 14 -6 0 -10 29 -10 67 0 36 3 63 7 60 8 -9 53 32
53 49 0 6 12 19 26 29 22 14 25 22 20 48 -3 18 -7 41 -9 52 -1 14 -13 22 -44
28 -58 11 -68 55 -13 57 18 1 59 30 42 30 -7 0 -12 7 -12 15 0 8 5 15 11 15 6
0 9 9 6 20 -3 11 -1 18 4 14 5 -3 9 0 9 5 0 6 7 11 15 11 8 0 15 -5 15 -12 0
-6 3 -8 7 -4 5 4 8 12 8 17 0 5 3 9 8 9 4 -1 21 7 38 17 30 17 31 17 45 -1 14
-19 14 -19 14 1 0 11 6 26 14 32 11 10 17 8 25 -6 6 -10 11 -13 11 -7 0 18 46
34 59 21 8 -8 11 -8 11 1 0 7 13 12 30 12 17 0 30 -4 30 -9 0 -5 10 -13 23
-16 12 -4 35 -19 51 -34 l28 -26 -7 25 c-16 52 -24 66 -53 98 -35 38 -45 39
-71 11 -28 -30 -99 -27 -276 12 -160 35 -198 39 -240 28 -26 -8 -34 -4 -70 31
-22 22 -48 40 -56 40 -12 0 -14 10 -9 53 7 61 47 137 73 137 16 0 18 4 21 77
1 10 -11 20 -29 25 -38 12 -144 64 -167 82 -10 7 -25 29 -33 50 -8 20 -20 36
-25 36 -16 0 -11 46 11 102 31 80 45 123 73 233 15 55 34 115 44 135 10 19 26
49 34 65 9 17 24 49 35 72 10 22 21 39 25 37 5 -3 8 3 8 13 0 15 2 16 10 3 7
-11 9 -4 5 25 -3 22 -2 78 2 125 8 86 0 212 -16 241 -18 32 44 262 122 454 34
84 93 218 105 241 6 10 14 33 18 49 6 29 6 30 17 8 12 -27 27 -30 27 -5 0 14
2 14 9 3 5 -8 7 -21 3 -29 -3 -10 -1 -13 6 -8 8 5 12 0 12 -12 0 -30 60 -155
81 -170 11 -7 19 -19 19 -26 0 -7 18 -47 40 -89 38 -71 48 -115 34 -151 -3 -9
-12 -16 -19 -16 -8 0 -23 -12 -34 -26 -15 -20 -21 -22 -21 -10 0 9 -4 16 -10
16 -5 0 -10 -5 -10 -11 0 -6 -7 -8 -16 -5 -8 3 -25 -1 -38 -9 -12 -8 -25 -12
-29 -9 -8 8 -77 -18 -71 -27 2 -4 0 -10 -6 -14 -5 -3 -10 -10 -10 -14 0 -13
57 -34 70 -26 16 10 91 16 123 9 18 -4 29 -14 33 -30 6 -23 34 -35 34 -14 0
23 16 7 33 -30 25 -58 22 -71 -10 -68 -25 3 -28 0 -25 -24 1 -16 -1 -28 -6
-28 -10 0 -19 -23 -31 -83 -7 -29 -6 -35 4 -27 20 17 28 -33 10 -66 -19 -37
-19 -52 0 -71 9 -8 13 -23 10 -32 -3 -10 4 -28 15 -41 11 -13 20 -32 20 -42 0
-11 5 -16 11 -13 13 8 38 -23 40 -50 1 -11 5 14 9 55 6 62 4 77 -9 87 -27 19
-3 27 47 14 26 -6 63 -13 82 -14 42 -4 80 -26 80 -47 0 -9 9 -22 20 -30 11 -8
20 -20 20 -28 0 -7 4 -10 10 -7 6 3 7 -1 4 -9 -4 -10 -1 -16 9 -16 9 0 19 -9
22 -20 3 -11 13 -20 21 -20 8 0 14 -7 14 -15 0 -9 11 -21 25 -27 14 -6 25 -15
25 -19 0 -4 9 -5 20 -2 13 3 26 -2 37 -15 21 -24 90 -42 78 -21 -3 8 2 4 13
-8 11 -13 23 -23 27 -23 4 0 29 -23 56 -51 49 -51 49 -51 49 -23 l0 29 30 -31
c16 -18 32 -44 36 -58 8 -32 20 -41 28 -21 9 25 22 17 47 -30 13 -25 27 -45
32 -45 11 0 -3 49 -26 87 -12 21 -17 42 -13 57 4 16 1 26 -9 30 -8 3 -15 12
-15 21 0 8 -9 24 -21 36 -22 22 -43 79 -30 79 4 0 14 -12 21 -27 12 -26 13
-27 20 -8 8 21 3 45 -9 45 -13 0 -11 74 2 82 9 6 8 10 -3 18 -11 7 -16 5 -18
-8 -2 -9 -8 -21 -13 -26 -5 -6 -9 -18 -9 -27 0 -9 -8 -23 -17 -30 -15 -12 -16
-12 -10 5 5 13 0 26 -19 43 -18 17 -24 30 -20 46 5 22 -8 71 -31 112 -12 22
-2 67 11 47 4 -7 4 -12 0 -12 -4 0 3 -11 15 -24 12 -13 24 -30 25 -37 2 -8 10
-30 19 -49 l15 -35 10 25 c18 46 24 91 14 103 -7 10 -42 108 -42 120 0 2 7 4
15 4 9 0 18 -12 21 -26 2 -14 12 -46 21 -71 8 -25 19 -63 22 -85 4 -22 12 -39
18 -38 6 1 15 -16 21 -37 5 -22 6 -37 1 -34 -8 5 -11 -15 -12 -66 -1 -28 15
-90 24 -96 5 -3 9 -12 9 -21 0 -18 59 -141 72 -149 4 -3 8 -14 8 -24 0 -11 9
-39 19 -62 11 -24 31 -72 46 -108 32 -76 53 -104 30 -41 -17 51 -18 51 -7 51
4 0 21 -20 37 -46 16 -25 33 -48 39 -51 5 -4 0 9 -12 28 -39 62 -100 187 -107
220 -4 18 -16 48 -26 66 -11 19 -19 40 -19 49 0 8 -9 34 -20 56 -11 23 -20 48
-20 55 0 7 -4 21 -9 31 -6 9 -15 53 -21 96 -6 44 -14 84 -19 90 -4 6 -14 32
-22 58 -7 26 -16 45 -20 42 -4 -2 -9 3 -12 11 -4 9 -1 12 9 8 19 -7 18 15 -2
63 -26 63 -62 195 -69 254 -4 30 -13 91 -22 135 -8 44 -16 91 -17 105 -2 14
-5 30 -7 35 -4 10 3 15 20 15 9 0 36 -68 46 -118 5 -22 11 -32 20 -28 12 4 35
-68 48 -154 3 -14 5 -7 6 18 2 63 4 62 86 -67 6 -9 24 -36 41 -61 17 -25 37
-63 43 -85 7 -22 15 -46 17 -54 4 -11 7 -10 18 4 12 17 15 13 31 -36 21 -64
23 -68 35 -50 7 12 10 12 22 0 30 -32 39 -50 68 -129 35 -98 41 -106 35 -54
-4 32 -3 34 4 14 5 -14 10 -18 11 -10 1 12 3 11 8 -2 4 -10 7 -90 6 -179 0
-89 3 -153 6 -143 6 16 8 15 12 -7 2 -14 1 -36 -4 -48 -4 -13 -4 -30 2 -41 7
-13 5 -21 -6 -31 -11 -9 -13 -22 -9 -52 8 -44 -13 -136 -26 -116 -4 7 -6 17
-3 21 3 4 -2 21 -11 37 -8 17 -15 52 -15 78 0 31 -3 43 -9 34 -5 -7 -7 -34 -5
-58 3 -26 0 -51 -7 -59 -8 -10 -8 -14 -1 -14 17 0 30 -66 36 -185 3 -60 9
-120 12 -133 5 -18 3 -21 -10 -16 -20 8 -20 -12 -1 -46 l14 -25 16 39 c9 22
17 59 17 83 0 36 2 42 13 33 8 -7 19 -9 25 -5 9 6 16 -19 10 -40 -2 -5 -5 -59
-6 -120 -2 -60 -7 -130 -12 -155 -34 -164 -46 -210 -65 -247 -11 -24 -24 -43
-28 -43 -4 0 -15 -20 -25 -45 -9 -25 -19 -45 -23 -45 -3 0 -21 -23 -40 -50
-19 -28 -37 -50 -40 -50 -3 0 -12 -10 -20 -21 l-13 -22 30 22 c50 35 143 144
149 173 6 32 15 35 34 12 11 -14 15 -10 31 31 21 52 87 160 94 152 9 -9 -40
-260 -75 -379 -11 -38 -16 -68 -11 -68 9 0 38 92 60 190 13 57 53 180 72 217
6 11 7 26 3 32 -6 11 1 60 36 266 6 39 12 84 12 102 0 18 4 30 9 27 4 -3 3 6
-3 20 -13 27 -3 256 11 256 19 0 38 -143 45 -345 4 -111 3 -126 -23 -201 -25
-75 -26 -80 -8 -80 29 1 67 -119 70 -225 2 -47 7 -92 12 -100 5 -8 9 -58 10
-112 0 -53 3 -99 6 -102 3 -3 37 1 76 8 40 8 72 10 72 6 0 -5 6 -6 13 -4 16 6
31 -5 46 -33 15 -29 33 -19 25 14 -4 15 -2 24 6 24 7 0 10 -7 6 -15 -3 -9 0
-15 9 -15 8 0 15 -9 15 -20 0 -11 4 -20 8 -20 13 0 34 -52 24 -59 -16 -10 -20
-70 -5 -82 7 -6 13 -29 13 -50 0 -24 5 -39 13 -40 6 0 2 -4 -10 -9 -14 -6 -23
-18 -23 -30 0 -12 3 -19 8 -17 4 3 8 -6 9 -19 6 -54 8 -62 15 -58 7 4 10 -10
7 -32 0 -4 3 -10 8 -13 5 -3 20 -32 33 -64 16 -37 26 -53 32 -45 6 10 8 10 8
-1 0 -29 34 -90 55 -101 12 -7 32 -30 45 -51 23 -42 63 -75 79 -65 12 8 41 -3
41 -15 0 -5 -12 -9 -27 -9 -16 0 -23 -4 -18 -8 12 -8 96 -135 118 -177 8 -16
25 -40 36 -52 12 -12 21 -25 21 -28 0 -3 9 -16 21 -28 31 -33 91 -144 93 -172
0 -14 7 -27 14 -30 6 -2 12 -11 12 -20 0 -19 83 -240 116 -309 13 -27 21 -53
17 -59 -3 -6 -1 -7 5 -3 8 5 12 -2 12 -18 0 -14 25 -114 55 -222 31 -108 72
-269 91 -358 69 -315 145 -692 150 -746 3 -30 9 -61 14 -70 4 -8 13 -47 19
-85 7 -39 17 -77 22 -85 7 -11 8 -2 3 30 -11 74 5 39 32 -70 14 -57 41 -144
59 -194 34 -90 91 -293 135 -476 12 -52 39 -140 60 -195 21 -55 43 -118 50
-140 7 -22 18 -44 24 -50 30 -25 64 -84 74 -130 6 -27 23 -93 38 -145 20 -74
116 -470 149 -617 l5 -23 980 0 980 0 0 5400 0 5400 -5400 0 -5400 0 0 -5400z
m4703 3243 c-1 -6 7 -19 17 -28 11 -10 20 -28 20 -39 0 -12 4 -28 10 -36 8
-12 10 -12 16 3 8 21 34 23 34 2 0 -8 5 -15 10 -15 6 0 10 -11 10 -25 0 -26
-15 -34 -23 -12 -4 8 -6 9 -6 0 -1 -6 6 -18 14 -27 9 -8 14 -20 13 -27 -2 -6
3 -14 10 -16 9 -4 11 2 6 21 -5 21 -3 25 10 20 18 -7 31 -47 21 -63 -3 -6 -2
-11 4 -11 14 0 7 -93 -8 -98 -6 -2 -11 -11 -11 -19 0 -22 -30 -109 -62 -181
-15 -34 -28 -67 -28 -73 0 -5 -9 -29 -19 -53 -11 -23 -18 -52 -15 -63 4 -14
-2 -29 -16 -43 -12 -12 -26 -35 -32 -52 -8 -23 -13 -27 -20 -16 -7 9 -8 7 -5
-10 3 -12 1 -20 -4 -16 -5 3 -9 -1 -9 -9 0 -29 -69 -38 -71 -9 -1 16 -2 16 -6
0 -6 -22 -12 -22 -35 -1 -20 18 -24 48 -8 58 6 3 10 19 10 36 0 16 5 29 10 29
6 0 10 9 10 20 0 11 -4 20 -10 20 -5 0 -10 -7 -10 -15 0 -8 -4 -15 -10 -15
-17 0 -11 19 10 32 21 13 27 38 10 38 -12 0 -40 -52 -41 -77 0 -11 -3 -13 -6
-5 -2 6 -8 10 -12 7 -5 -2 -16 1 -26 9 -13 9 -18 30 -21 82 -3 69 21 214 36
214 4 0 11 17 15 38 4 20 10 42 15 47 4 6 10 35 13 65 6 66 12 92 26 119 6 11
11 29 11 40 0 11 11 27 23 36 13 8 29 26 35 40 7 14 17 24 24 23 7 -2 14 8 16
21 2 13 9 30 15 37 14 15 43 13 40 -3z m667 -99 c0 -36 -4 -53 -11 -49 -6 4
-8 23 -5 44 3 20 5 42 6 49 0 6 2 12 5 12 3 0 5 -25 5 -56z m-384 -62 c-17
-16 -18 -16 -5 5 7 12 15 20 18 17 3 -2 -3 -12 -13 -22z m-89 -24 c-3 -7 -5
-2 -5 12 0 14 2 19 5 13 2 -7 2 -19 0 -25z m66 -63 c-3 -9 -8 -14 -10 -11 -3
3 -2 9 2 15 9 16 15 13 8 -4z m460 -60 c4 -8 2 -17 -3 -20 -6 -4 -10 3 -10 14
0 25 6 27 13 6z m2692 -5 c3 -5 1 -10 -4 -10 -6 0 -11 5 -11 10 0 6 2 10 4 10
3 0 8 -4 11 -10z m-2721 -93 c7 -6 6 -7 -4 -4 -8 2 -16 12 -17 23 -2 13 -1 15
4 4 3 -8 11 -19 17 -23z m41 -4 c4 -14 2 -23 -4 -23 -6 0 -11 3 -11 8 0 4 -3
18 -6 32 -8 31 11 16 21 -17z m-28 -37 c6 -56 23 -157 36 -206 17 -62 19 -54
21 83 1 83 9 106 36 107 9 0 40 -119 39 -152 0 -28 -3 -24 -19 27 -21 72 -38
114 -39 99 -2 -28 39 -167 58 -197 21 -35 29 -97 11 -97 -5 0 -14 8 -19 18 -8
13 -10 6 -11 -33 0 -36 -3 -46 -10 -35 -5 8 -10 26 -10 40 0 18 -3 21 -11 13
-24 -24 -69 66 -69 138 0 21 -5 41 -10 44 -6 4 -10 21 -9 38 1 18 -3 52 -9 77
-14 57 -14 57 1 57 6 0 13 -10 14 -21z m-571 -63 c-8 -15 -15 -22 -16 -15 0
14 22 53 28 47 2 -2 -3 -16 -12 -32z m614 -35 c0 -34 -3 -58 -7 -54 -10 10
-11 116 -1 116 5 0 8 -28 8 -62z m4538 -118 c12 -11 25 -20 31 -20 15 0 61
-60 61 -81 0 -10 4 -19 9 -19 4 0 17 -21 27 -47 26 -70 32 -358 8 -406 -29
-55 -77 -107 -101 -107 -12 0 -33 -5 -46 -11 -19 -9 -31 -7 -56 5 -49 26 -59
51 -60 152 0 55 -6 104 -15 126 -9 19 -13 38 -9 41 3 3 -2 35 -12 70 -16 58
-16 67 -2 98 8 19 22 63 31 98 16 68 38 101 67 101 10 0 21 5 24 10 9 15 19
12 43 -10z m-4328 -104 c0 -21 -3 -27 -10 -20 -13 13 -30 71 -23 78 11 10 32
-29 33 -58z m72 -48 c9 -29 15 -55 13 -56 -6 -6 -28 41 -36 75 -11 53 5 38 23
-19z m4653 -24 c26 -10 45 -59 45 -116 -1 -45 -4 -56 -26 -71 -21 -16 -30 -17
-54 -7 -34 14 -39 25 -47 100 -9 86 19 118 82 94z m-4705 -45 c0 -6 -4 -7 -10
-4 -5 3 -10 11 -10 16 0 6 5 7 10 4 6 -3 10 -11 10 -16z m55 -40 c4 -24 10
-37 14 -30 17 27 43 -75 47 -184 l5 -110 -21 40 c-13 25 -18 31 -14 15 11 -48
12 -70 4 -70 -5 0 -11 12 -14 28 -14 71 -35 224 -40 290 -5 77 7 90 19 21z
m3906 20 c16 -22 43 -103 56 -172 3 -15 0 -41 -7 -57 -12 -28 -16 -30 -64 -30
-114 1 -186 69 -186 177 1 40 6 64 18 79 24 28 37 32 106 29 49 -2 62 -6 77
-26z m-4071 -40 c0 6 4 11 9 11 10 0 25 -80 16 -88 -7 -8 -32 27 -44 62 -9 24
-9 27 4 16 10 -9 15 -9 15 -1z m110 -117 c15 -66 7 -78 -13 -20 -11 29 -16 36
-16 21 -1 -22 -19 -27 -33 -9 -8 11 13 47 24 40 4 -3 8 2 8 11 0 9 -3 14 -8
11 -4 -2 -5 14 -3 37 l4 42 12 -40 c7 -22 18 -64 25 -93z m7 66 c-3 -7 -5 -2
-5 12 0 14 2 19 5 13 2 -7 2 -19 0 -25z m161 -105 c13 -82 10 -98 -12 -67 -17
22 -25 66 -21 109 4 37 3 35 13 35 5 0 14 -34 20 -77z m1799 25 c-3 -8 -6 -5
-6 6 -1 11 2 17 5 13 3 -3 4 -12 1 -19z m430 -18 c2 -24 -12 -27 -21 -4 -9 24
-7 34 7 28 7 -2 13 -13 14 -24z m-2161 -14 c1 -16 6 -31 11 -34 6 -4 13 -29
17 -56 6 -38 5 -47 -6 -43 -7 2 -12 14 -10 27 1 12 -3 29 -9 37 -7 7 -13 24
-14 37 -2 13 -6 34 -10 46 -5 16 -3 21 6 18 8 -3 14 -17 15 -32z m-1466 -11
c7 -8 19 -15 26 -15 8 0 14 -7 14 -15 0 -8 -7 -15 -15 -15 -8 0 -15 5 -15 10
0 6 -11 10 -24 10 -35 0 -78 18 -71 30 10 15 71 12 85 -5z m830 -5 c0 -5 -4
-10 -10 -10 -5 0 -10 5 -10 10 0 6 5 10 10 10 6 0 10 -4 10 -10z m294 -6 c3
-8 2 -12 -4 -9 -6 3 -10 10 -10 16 0 14 7 11 14 -7z m2104 -20 c-10 -10 -28 6
-28 24 0 15 1 15 17 -1 9 -9 14 -19 11 -23z m-2001 -6 c-3 -8 -6 -5 -6 6 -1
11 2 17 5 13 3 -3 4 -12 1 -19z m-1186 -34 c12 -15 11 -16 -11 -9 -46 14 -58
24 -29 25 15 0 33 -7 40 -16z m1361 -29 c-2 -14 -6 -25 -7 -25 -1 0 -5 11 -7
25 -3 16 -1 25 7 25 8 0 10 -9 7 -25z m1924 -12 c-10 -10 -19 5 -10 18 6 11 8
11 12 0 2 -7 1 -15 -2 -18z m-739 -25 c-3 -7 -5 -2 -5 12 0 14 2 19 5 13 2 -7
2 -19 0 -25z m676 -38 c-6 -7 -23 23 -23 40 0 8 6 4 13 -10 8 -14 12 -27 10
-30z m-613 -76 c15 -27 33 -59 40 -71 19 -29 5 -41 -20 -18 -13 12 -18 25 -14
37 3 12 1 18 -8 16 -7 -2 -14 8 -16 22 -2 14 -9 32 -16 40 -7 8 -17 21 -21 29
-6 11 -4 11 10 4 10 -6 30 -32 45 -59z m160 27 c0 -9 3 -21 8 -27 4 -5 -3 2
-15 16 -27 29 -33 60 -8 40 8 -7 15 -20 15 -29z m-1476 -84 c9 -26 16 -54 16
-62 0 -7 10 -26 23 -42 28 -34 50 -83 37 -83 -14 0 -40 30 -40 46 0 8 -7 14
-15 14 -10 0 -15 10 -15 29 0 16 -7 34 -15 41 -8 7 -12 16 -9 21 3 5 2 25 -2
45 -4 24 -9 32 -15 23 -12 -20 -19 -8 -23 40 l-4 43 23 -34 c12 -18 30 -55 39
-81z m15 53 c1 -13 0 -13 -9 0 -5 8 -9 24 -9 35 l0 20 9 -20 c5 -11 9 -27 9
-35z m2396 30 c3 -5 1 -10 -4 -10 -6 0 -11 5 -11 10 0 6 2 10 4 10 3 0 8 -4
11 -10z m-425 -50 c0 -11 -2 -20 -4 -20 -2 0 -6 9 -9 20 -3 11 -1 20 4 20 5 0
9 -9 9 -20z m-2223 -12 c-3 -8 -6 -5 -6 6 -1 11 2 17 5 13 3 -3 4 -12 1 -19z
m1783 -30 c0 -5 -7 -3 -15 6 -8 8 -15 18 -15 22 0 3 7 1 15 -6 8 -7 15 -17 15
-22z m2306 24 c6 -4 16 -23 23 -43 15 -47 -3 -104 -42 -133 -24 -18 -31 -19
-60 -7 -17 7 -37 13 -42 14 -22 5 -53 33 -60 56 -10 33 13 97 39 109 24 12
126 15 142 4z m-1979 -24 c-3 -8 -6 -5 -6 6 -1 11 2 17 5 13 3 -3 4 -12 1 -19z
m-672 -18 c-6 -9 -9 -9 -16 1 -10 17 0 34 13 21 6 -6 7 -16 3 -22z m-1160 2
c-3 -3 -11 0 -18 7 -9 10 -8 11 6 5 10 -3 15 -9 12 -12z m25 -42 c-19 -12 -30
-12 -30 -1 0 10 31 20 40 14 2 -2 -2 -8 -10 -13z m1165 10 c3 -5 1 -10 -4 -10
-6 0 -11 5 -11 10 0 6 2 10 4 10 3 0 8 -4 11 -10z m-1135 -69 c0 -11 -3 -11
-15 -1 -8 7 -15 22 -15 33 0 20 0 20 15 1 8 -10 15 -25 15 -33z m1341 -28 c20
-21 34 -63 22 -63 -8 1 -24 20 -58 74 -19 29 -19 29 0 18 11 -5 28 -18 36 -29z
m-1461 6 c0 -4 -7 -6 -15 -3 -8 4 -15 10 -15 15 0 4 7 6 15 3 8 -4 15 -10 15
-15z m1960 -7 c0 -15 -2 -15 -10 -2 -13 20 -13 33 0 25 6 -3 10 -14 10 -23z
m534 -18 c3 -8 2 -12 -4 -9 -6 3 -10 10 -10 16 0 14 7 11 14 -7z m-2461 -30
c10 -20 16 -38 14 -40 -7 -7 -38 33 -42 55 -6 32 8 25 28 -15z m127 -15 c0 -6
-4 -7 -10 -4 -5 3 -10 11 -10 16 0 6 5 7 10 4 6 -3 10 -11 10 -16z m-69 -6
c13 -16 12 -17 -3 -4 -10 7 -18 15 -18 17 0 8 8 3 21 -13z m59 -43 c0 -5 -4
-10 -10 -10 -5 0 -10 5 -10 10 0 6 5 10 10 10 6 0 10 -4 10 -10z m-27 -50 c3
-11 2 -20 -3 -20 -4 0 -10 9 -13 20 -3 11 -2 20 3 20 4 0 10 -9 13 -20z
m-1583 -285 c0 -14 -2 -25 -4 -25 -2 0 -6 11 -8 25 -3 14 -1 25 3 25 5 0 9
-11 9 -25z m2320 -4 c0 -5 3 -24 6 -42 5 -23 3 -31 -3 -24 -15 14 -25 75 -13
75 6 0 10 -4 10 -9z m1540 -7 c0 -8 -4 -12 -10 -9 -5 3 -10 10 -10 16 0 5 5 9
10 9 6 0 10 -7 10 -16z m-33 -66 c-3 -8 -6 -5 -6 6 -1 11 2 17 5 13 3 -3 4
-12 1 -19z m30 -10 c-3 -8 -6 -5 -6 6 -1 11 2 17 5 13 3 -3 4 -12 1 -19z m-62
-7 c3 -5 1 -12 -5 -16 -5 -3 -10 1 -10 9 0 18 6 21 15 7z m-1538 -23 c-3 -8
-6 -5 -6 6 -1 11 2 17 5 13 3 -3 4 -12 1 -19z m1610 -30 c-3 -8 -6 -5 -6 6 -1
11 2 17 5 13 3 -3 4 -12 1 -19z m-1573 -113 c4 -44 9 -81 11 -84 3 -2 11 2 20
9 12 10 15 10 15 -4 0 -10 -4 -14 -10 -11 -6 3 -10 -4 -10 -17 0 -18 2 -20 10
-8 8 12 10 11 10 -7 0 -13 -4 -23 -9 -23 -4 0 -11 -59 -13 -132 -5 -105 -9
-134 -22 -143 -20 -15 -21 -26 -2 -19 14 6 14 -16 -1 -56 -4 -8 -5 -18 -5 -22
1 -5 -2 -8 -8 -8 -5 0 -10 -6 -10 -14 0 -7 -7 -19 -15 -26 -18 -15 -18 -9 -4
61 6 30 11 63 11 74 -1 10 3 25 9 31 5 7 12 30 14 51 2 21 7 52 10 69 4 18 3
34 -2 37 -8 5 -50 -181 -58 -256 -4 -33 -5 -34 -15 -9 -6 13 -6 32 0 48 6 14
10 52 10 86 0 33 7 87 16 121 8 33 13 69 11 79 -8 27 15 281 24 266 3 -7 10
-49 13 -93z m-114 73 c0 -7 -5 -20 -10 -28 -8 -12 -10 -9 -10 13 0 15 5 27 10
27 6 0 10 -6 10 -12z m44 -144 c-6 -25 -18 -31 -29 -14 -3 6 -1 10 4 10 6 0
11 17 12 38 0 33 1 34 10 14 5 -13 6 -35 3 -48z m1803 -116 c-3 -8 -6 -5 -6 6
-1 11 2 17 5 13 3 -3 4 -12 1 -19z m-97 -17 c0 -6 -4 -13 -10 -16 -5 -3 -10 1
-10 9 0 9 5 16 10 16 6 0 10 -4 10 -9z m10 -41 c0 -5 -2 -10 -4 -10 -3 0 -8 5
-11 10 -3 6 -1 10 4 10 6 0 11 -4 11 -10z m73 -120 c3 -11 1 -18 -4 -14 -5 3
-9 12 -9 20 0 20 7 17 13 -6z m-3975 -28 c-3 -10 1 -23 9 -30 21 -20 17 -108
-7 -132 -24 -24 -49 -28 -29 -4 11 14 10 18 -6 30 -10 8 -22 14 -26 14 -12 0
-17 53 -6 77 10 23 27 31 27 13 0 -23 19 -8 25 20 4 17 9 30 12 30 3 0 3 -8 1
-18z m52 -27 c0 -8 -4 -15 -10 -15 -5 0 -7 7 -4 15 4 8 8 15 10 15 2 0 4 -7 4
-15z m-1670 -3 c0 -4 20 -21 45 -36 25 -16 45 -35 45 -42 0 -7 10 -14 23 -16
17 -3 13 -7 -21 -18 -24 -7 -48 -23 -54 -34 -6 -12 -14 -23 -18 -26 -11 -8
-19 -100 -9 -100 5 0 9 -9 9 -20 0 -11 -4 -20 -10 -20 -5 0 -10 -17 -10 -39 0
-35 -2 -38 -25 -33 -33 6 -40 19 -18 33 14 8 17 21 14 55 -2 29 -8 44 -17 44
-16 0 -34 31 -34 58 0 11 -7 25 -16 33 -17 14 -37 51 -48 87 -6 19 -2 25 28
37 20 9 36 19 36 24 0 8 18 14 68 20 6 0 12 -3 12 -7z m1706 -32 c8 0 14 -8
14 -18 0 -10 3 -22 7 -26 4 -4 8 -13 8 -19 1 -27 17 -77 24 -73 3 3 6 -8 5
-22 -1 -15 -3 -58 -3 -97 -1 -68 -2 -71 -37 -99 -29 -23 -38 -26 -45 -15 -6
10 -9 11 -9 2 0 -24 -37 -13 -74 20 -37 35 -44 55 -25 74 7 7 12 31 13 55 2
41 3 43 48 58 45 14 47 17 50 57 2 24 0 43 -3 43 -13 0 -17 54 -5 79 11 25 11
25 14 3 2 -12 10 -22 18 -22z m4438 -60 c5 -23 4 -30 -2 -20 -5 8 -12 33 -16
55 -7 48 8 19 18 -35z m-517 28 c-3 -8 -6 -5 -6 6 -1 11 2 17 5 13 3 -3 4 -12
1 -19z m-122 2 c3 -5 1 -10 -4 -10 -6 0 -11 5 -11 10 0 6 2 10 4 10 3 0 8 -4
11 -10z m-3465 -39 c0 -14 -18 -23 -30 -16 -6 4 -8 11 -5 16 8 12 35 12 35 0z
m96 -1 c8 0 14 -4 14 -10 0 -5 -13 -10 -30 -10 -21 0 -30 5 -30 16 0 11 5 14
16 10 9 -3 22 -6 30 -6z m44 -10 c0 -5 -5 -10 -11 -10 -5 0 -7 5 -4 10 3 6 8
10 11 10 2 0 4 -4 4 -10z m1620 -14 c0 -8 -4 -17 -9 -20 -5 -4 -12 -24 -16
-45 -3 -22 -13 -47 -20 -58 -12 -16 -13 -15 -6 12 18 73 36 125 43 125 4 0 8
-6 8 -14z m3993 -38 c11 -17 1 -68 -13 -68 -6 0 -10 5 -10 12 0 6 -9 22 -21
34 -12 12 -18 27 -15 33 9 15 48 8 59 -11z m-949 -2 c77 -32 102 -127 51 -197
-60 -81 -126 -116 -200 -105 -47 8 -67 24 -89 77 -17 40 -15 131 2 137 7 2 12
10 12 18 0 7 24 29 52 49 59 39 113 46 172 21z m-5024 -61 c0 -7 6 -16 13 -18
7 -4 6 -6 -5 -6 -9 -1 -18 -7 -21 -13 -2 -8 -8 -9 -13 -4 -5 5 -4 11 3 13 9 3
11 14 7 30 -5 18 -3 24 5 19 6 -4 11 -13 11 -21z m4365 -5 c3 -5 1 -10 -4 -10
-6 0 -11 5 -11 10 0 6 2 10 4 10 3 0 8 -4 11 -10z m22 -32 c0 -7 3 -24 8 -38
7 -22 6 -23 -7 -12 -20 16 -30 62 -13 62 6 0 12 -6 12 -12z m1552 -12 c8 -10
9 -26 2 -55 -8 -39 -7 -44 20 -72 46 -47 35 -105 -20 -107 -46 -1 -53 16 -34
77 12 37 14 54 6 59 -15 10 -18 31 -10 75 8 39 18 45 36 23z m-5949 -45 c0
-14 -18 -23 -30 -16 -6 4 -8 11 -5 16 8 12 35 12 35 0z m4107 -13 c-3 -8 -6
-5 -6 6 -1 11 2 17 5 13 3 -3 4 -12 1 -19z m-4043 -3 c-4 -8 -8 -15 -10 -15
-2 0 -4 7 -4 15 0 8 4 15 10 15 5 0 7 -7 4 -15z m3883 -117 c-3 -8 -6 -5 -6 6
-1 11 2 17 5 13 3 -3 4 -12 1 -19z m-722 -40 l16 -33 -21 24 c-11 13 -20 27
-20 32 0 18 10 8 25 -23z m-383 -863 c4 -16 1 -25 -8 -25 -17 0 -25 15 -18 34
9 24 21 19 26 -9z m1175 -287 c-3 -7 -5 -2 -5 12 0 14 2 19 5 13 2 -7 2 -19 0
-25z m163 -384 c0 -8 -4 -12 -10 -9 -5 3 -10 10 -10 16 0 5 5 9 10 9 6 0 10
-7 10 -16z m-5 -34 c-3 -5 -10 -10 -16 -10 -5 0 -9 5 -9 10 0 6 7 10 16 10 8
0 12 -4 9 -10z m15 -40 c0 -5 -5 -10 -11 -10 -5 0 -7 5 -4 10 3 6 8 10 11 10
2 0 4 -4 4 -10z m7 -272 c-3 -8 -6 -5 -6 6 -1 11 2 17 5 13 3 -3 4 -12 1 -19z
m-367 -544 c0 -8 -4 -12 -10 -9 -5 3 -10 13 -10 21 0 8 5 12 10 9 6 -3 10 -13
10 -21z m176 -1821 c4 -21 8 -47 9 -58 1 -11 4 -22 5 -25 3 -5 6 -24 9 -52 0
-10 8 -18 16 -18 8 0 15 -7 15 -15 0 -16 -9 -19 -26 -7 -15 10 -37 80 -36 114
0 16 -3 26 -9 23 -5 -3 -6 0 -3 8 3 8 1 18 -5 22 -6 3 -11 25 -11 48 0 40 1
40 15 20 8 -12 18 -38 21 -60z"/>
<path d="M4731 8464 c0 -11 3 -14 6 -6 3 7 2 16 -1 19 -3 4 -6 -2 -5 -13z"/>
<path d="M4711 8384 c0 -11 3 -14 6 -6 3 7 2 16 -1 19 -3 4 -6 -2 -5 -13z"/>
<path d="M4685 8319 c-4 -6 -5 -12 -2 -15 2 -3 7 2 10 11 7 17 1 20 -8 4z"/>
<path d="M4713 8304 c4 -4 -2 -19 -13 -34 -11 -16 -20 -35 -20 -43 0 -9 -4
-19 -10 -22 -5 -3 -10 -15 -10 -26 0 -10 5 -19 10 -19 6 0 10 6 10 13 0 7 11
37 25 65 28 58 30 72 13 72 -6 0 -8 -3 -5 -6z"/>
<path d="M4727 8246 c-4 -10 -1 -13 9 -9 7 3 14 9 14 14 0 14 -17 10 -23 -5z"/>
<path d="M4637 8142 c-3 -15 -15 -37 -26 -49 -12 -12 -21 -32 -20 -45 l0 -23
9 23 c6 13 21 38 35 56 26 35 31 51 16 60 -5 3 -11 -7 -14 -22z"/>
<path d="M4560 8000 c0 -5 4 -11 9 -15 6 -3 4 -20 -5 -40 -15 -38 -10 -46 12
-17 18 23 17 69 -1 76 -8 3 -15 1 -15 -4z"/>
<path d="M4402 5870 c0 -14 2 -19 5 -12 2 6 2 18 0 25 -3 6 -5 1 -5 -13z"/>
<path d="M5120 7615 c0 -8 5 -15 10 -15 6 0 10 7 10 15 0 8 -4 15 -10 15 -5 0
-10 -7 -10 -15z"/>
<path d="M6041 7534 c0 -11 3 -14 6 -6 3 7 2 16 -1 19 -3 4 -6 -2 -5 -13z"/>
<path d="M5080 7518 c0 -19 2 -20 10 -8 13 19 13 30 0 30 -5 0 -10 -10 -10
-22z"/>
<path d="M5980 7170 c0 -5 5 -10 11 -10 5 0 7 5 4 10 -3 6 -8 10 -11 10 -2 0
-4 -4 -4 -10z"/>
<path d="M6331 7105 c0 -5 6 -39 14 -75 8 -36 14 -80 15 -97 0 -18 5 -33 11
-33 8 0 10 16 5 50 -6 47 -43 176 -45 155z"/>
<path d="M6016 7055 c4 -8 8 -15 10 -15 2 0 4 7 4 15 0 8 -4 15 -10 15 -5 0
-7 -7 -4 -15z"/>
<path d="M6382 6730 c0 -14 2 -19 5 -12 2 6 2 18 0 25 -3 6 -5 1 -5 -13z"/>
<path d="M6392 6675 c0 -16 2 -22 5 -12 2 9 2 23 0 30 -3 6 -5 -1 -5 -18z"/>
<path d="M6061 6664 c0 -11 3 -14 6 -6 3 7 2 16 -1 19 -3 4 -6 -2 -5 -13z"/>
<path d="M6100 6613 c0 -12 5 -25 10 -28 13 -8 13 15 0 35 -8 12 -10 11 -10
-7z"/>
<path d="M6362 6610 c0 -14 2 -19 5 -12 2 6 2 18 0 25 -3 6 -5 1 -5 -13z"/>
<path d="M6368 6574 c-8 -7 2 -44 12 -44 4 0 5 11 2 25 -5 27 -6 28 -14 19z"/>
<path d="M6041 6540 c0 -8 4 -22 9 -30 12 -18 12 -2 0 25 -6 13 -9 15 -9 5z"/>
<path d="M4765 6475 c-22 -8 -41 -15 -42 -15 -2 0 -3 -4 -3 -10 0 -5 24 -10
54 -10 29 0 66 -4 82 -9 89 -28 108 -20 52 22 -43 32 -93 40 -143 22z"/>
<path d="M6464 6078 c3 -13 6 -32 7 -43 0 -15 3 -12 9 8 9 31 4 57 -12 57 -6
0 -8 -10 -4 -22z"/>
<path d="M6400 5793 c0 -25 2 -44 4 -42 8 10 13 89 5 89 -5 0 -9 -21 -9 -47z"/>
<path d="M4991 5764 c0 -11 3 -14 6 -6 3 7 2 16 -1 19 -3 4 -6 -2 -5 -13z"/>
<path d="M6487 5334 c-4 -4 -7 -17 -7 -28 1 -19 1 -20 11 -3 11 19 8 43 -4 31z"/>
<path d="M6253 5255 c-6 -15 -7 -27 -2 -31 11 -6 22 19 17 40 -2 11 -6 9 -15
-9z"/>
<path d="M7060 5081 c0 -6 5 -13 10 -16 6 -3 10 1 10 9 0 9 -4 16 -10 16 -5 0
-10 -4 -10 -9z"/>
<path d="M4672 3270 c0 -14 2 -19 5 -12 2 6 2 18 0 25 -3 6 -5 1 -5 -13z"/>
<path d="M4680 3250 c-13 -13 -51 -165 -49 -195 0 -5 16 37 35 94 19 57 33
107 32 111 -2 3 -10 -1 -18 -10z"/>
<path d="M4520 2440 c-12 -23 -19 -44 -16 -47 2 -3 14 14 26 37 12 23 19 44
16 47 -2 3 -14 -14 -26 -37z"/>
<path d="M4475 2349 c-4 -6 -5 -12 -2 -15 2 -3 7 2 10 11 7 17 1 20 -8 4z"/>
<path d="M4135 2244 c-9 -31 -14 -58 -11 -61 2 -3 10 15 16 38 6 24 13 52 16
62 3 9 3 17 0 17 -2 0 -12 -25 -21 -56z"/>
<path d="M4441 2269 c-6 -18 -11 -37 -10 -43 0 -6 7 7 15 28 8 22 12 41 10 43
-2 2 -9 -10 -15 -28z"/>
<path d="M4095 2110 c-10 -33 -16 -62 -13 -65 3 -3 13 22 22 56 10 33 16 63
13 65 -2 2 -12 -23 -22 -56z"/>
<path d="M4381 2010 c-18 -91 -42 -212 -52 -270 -11 -58 -24 -125 -28 -150
-84 -443 -107 -610 -157 -1120 -36 -361 -41 -411 -49 -442 -5 -18 -3 -28 4
-28 6 0 11 3 11 8 0 4 11 104 24 222 13 118 29 280 35 360 12 151 35 359 52
470 30 195 124 720 154 855 29 134 47 235 43 247 -3 7 -19 -62 -37 -152z"/>
<path d="M4031 1902 c-22 -70 -41 -134 -40 -142 0 -8 11 19 24 60 14 41 34
103 46 138 12 35 19 65 17 68 -3 2 -24 -53 -47 -124z"/>
<path d="M8231 1910 c0 -8 4 -24 9 -35 5 -13 9 -14 9 -5 0 8 -4 24 -9 35 -5
13 -9 14 -9 5z"/>
<path d="M3956 1685 c-3 -9 -6 -22 -5 -28 0 -7 5 -1 10 12 5 13 8 26 5 28 -2
2 -6 -3 -10 -12z"/>
<path d="M3923 1595 c-3 -9 -3 -18 -1 -21 3 -3 8 4 11 16 6 23 -1 27 -10 5z"/>
<path d="M3897 1517 c-9 -26 -14 -47 -12 -47 8 0 36 73 32 84 -2 6 -11 -11
-20 -37z"/>
<path d="M3871 1434 c0 -11 3 -14 6 -6 3 7 2 16 -1 19 -3 4 -6 -2 -5 -13z"/>
<path d="M3851 1383 c-1 -6 -4 -20 -7 -30 -5 -17 -5 -17 6 0 6 10 9 23 6 30
-3 9 -5 9 -5 0z"/>
<path d="M3787 1203 c-4 -3 -7 -16 -6 -27 0 -19 1 -19 10 3 10 24 8 36 -4 24z"/>
<path d="M3767 1131 c-4 -17 -3 -21 5 -13 5 5 8 16 6 23 -3 8 -7 3 -11 -10z"/>
<path d="M3676 885 c-9 -26 -7 -32 5 -12 6 10 9 21 6 23 -2 3 -7 -2 -11 -11z"/>
</g>
</svg>
